<svg version="1.1" id="Layer_1" xmlns="http://www.w3.org/2000/svg" xmlns:xlink="http://www.w3.org/1999/xlink" x="0px" y="0px"
	 width="100%" viewBox="0 0 1606 1499" enable-background="new 0 0 1606 1499" xml:space="preserve">
<path fill="#FEFFFF" opacity="1.000000" stroke="none" 
	d="
M1.000000,571.000000 
	C1.000000,380.666687 1.000000,190.833405 1.000000,1.000077 
	C536.333191,1.000051 1071.666382,1.000051 1606.999756,1.000026 
	C1606.999756,500.666473 1606.999756,1000.332947 1606.999878,1499.999512 
	C1071.666992,1499.999756 536.333984,1499.999756 1.000472,1499.999878 
	C1.000000,1190.500000 1.000000,881.000000 1.000000,571.000000 
M1212.372681,1368.911987 
	C1230.369873,1358.500732 1248.777588,1348.732910 1266.289429,1337.560913 
	C1325.386353,1299.858643 1377.489502,1254.042480 1422.791504,1200.524414 
	C1460.724243,1155.712158 1492.527710,1106.906616 1518.082520,1054.044067 
	C1547.448730,993.296814 1567.549561,929.659363 1578.348145,863.013000 
	C1584.357788,825.922241 1587.501099,788.621887 1587.526855,751.116089 
	C1587.684204,521.293030 1587.605713,291.469788 1587.605103,61.646591 
	C1587.605103,54.035004 1587.601807,54.032131 1580.039307,54.032112 
	C1352.882690,54.031593 1125.726074,54.031658 898.569397,54.032074 
	C897.236145,54.032074 895.663940,53.593163 894.627747,54.149620 
	C893.206787,54.912720 891.802002,56.248466 891.122986,57.685108 
	C890.542786,58.912743 890.992065,60.628601 890.992065,62.128498 
	C890.991516,285.618622 890.991516,509.108765 890.991516,732.598877 
	C890.991516,733.598816 891.096130,734.611816 890.973267,735.596436 
	C890.530945,739.141357 892.010986,740.533325 895.532104,739.964783 
	C896.839600,739.753601 898.196167,739.868225 899.523132,739.752197 
	C930.374268,737.054871 961.226318,734.367554 992.074280,731.634338 
	C1032.209229,728.078369 1072.339722,724.472900 1112.473999,720.910339 
	C1144.484497,718.068787 1176.494995,715.227112 1208.513672,712.479858 
	C1212.262573,712.158203 1216.062866,712.436218 1220.346680,712.436218 
	C1220.823486,718.756897 1221.540771,725.039490 1221.730469,731.337952 
	C1222.564087,759.025391 1221.354614,786.579346 1217.256348,814.041565 
	C1211.474487,852.785706 1200.761475,890.038696 1184.928711,925.825623 
	C1159.153076,984.086426 1122.438843,1034.409668 1074.778931,1076.686157 
	C1022.835083,1122.762695 963.268005,1154.684204 896.079895,1172.266602 
	C892.389343,1173.232422 890.908447,1174.668701 890.913086,1178.650757 
	C891.015869,1266.480103 891.011719,1354.309570 890.924072,1442.138916 
	C890.920288,1445.911865 891.683960,1447.522339 895.879211,1447.279541 
	C918.319214,1445.981323 940.852478,1445.745117 963.203918,1443.590332 
	C998.683716,1440.169922 1033.690674,1433.656006 1068.203247,1424.548828 
	C1118.084595,1411.386353 1165.925415,1393.005127 1212.372681,1368.911987 
M91.500000,54.031666 
	C70.335938,54.031673 49.171879,54.030865 28.007820,54.032124 
	C20.398310,54.032574 20.394922,54.034843 20.394903,61.599319 
	C20.394310,291.088379 20.350470,520.577454 20.444214,750.066528 
	C20.457491,782.572815 22.567110,814.995300 27.138958,847.193665 
	C32.572868,885.463257 40.983452,923.070129 52.583038,959.987671 
	C67.852516,1008.585205 88.184380,1054.936401 113.692245,1098.976685 
	C156.794830,1173.395020 211.824097,1237.696777 278.552368,1291.973267 
	C320.700531,1326.256348 366.252289,1355.231567 415.206085,1378.730713 
	C478.001343,1408.874146 543.837524,1429.308472 612.817932,1439.483276 
	C645.821045,1444.351440 678.958679,1447.157104 712.329712,1447.293213 
	C716.176575,1447.308838 717.077942,1446.066895 717.074280,1442.433960 
	C716.988647,1357.104858 716.983276,1271.775513 717.084473,1186.446411 
	C717.089355,1182.338867 715.536682,1181.185913 711.709656,1180.501465 
	C700.420044,1178.482178 689.129883,1176.309570 678.012817,1173.510376 
	C638.922607,1163.667603 601.837830,1148.731323 566.986755,1128.446289 
	C494.713593,1086.379761 438.630981,1028.570312 399.030609,954.881226 
	C380.662170,920.700928 367.048645,884.655457 358.916840,846.731812 
	C355.052643,828.710876 352.969788,810.307922 350.083221,792.077515 
	C349.625031,789.183594 350.187195,787.398804 353.767029,787.139832 
	C366.221588,786.238708 378.654388,785.040405 391.097931,783.983826 
	C419.302704,781.588806 447.514008,779.269470 475.713226,776.811096 
	C509.714813,773.846802 543.705139,770.753967 577.703186,767.748535 
	C598.434814,765.915833 619.173401,764.162415 639.905823,762.338318 
	C662.961304,760.309875 686.006348,758.157593 709.070679,756.236633 
	C716.986572,755.577332 717.008301,755.821899 717.008301,748.135742 
	C717.008545,519.313293 717.008667,290.490875 717.008301,61.668434 
	C717.008301,54.034321 717.006042,54.032024 709.470642,54.032009 
	C503.813751,54.031597 298.156891,54.031689 91.500000,54.031666 
z"/>
<path fill="#02D3CF" opacity="1.000000" stroke="none" 
	d="
M1212.031250,1369.058472 
	C1165.925415,1393.005127 1118.084595,1411.386353 1068.203247,1424.548828 
	C1033.690674,1433.656006 998.683716,1440.169922 963.203918,1443.590332 
	C940.852478,1445.745117 918.319214,1445.981323 895.879211,1447.279541 
	C891.683960,1447.522339 890.920288,1445.911865 890.924072,1442.138916 
	C891.011719,1354.309570 891.015869,1266.480103 890.913086,1178.650757 
	C890.908447,1174.668701 892.389343,1173.232422 896.079895,1172.266602 
	C963.268005,1154.684204 1022.835083,1122.762695 1074.778931,1076.686157 
	C1122.438843,1034.409668 1159.153076,984.086426 1184.928711,925.825623 
	C1200.761475,890.038696 1211.474487,852.785706 1217.256348,814.041565 
	C1221.354614,786.579346 1222.564087,759.025391 1221.730469,731.337952 
	C1221.540771,725.039490 1220.823486,718.756897 1220.346680,712.436218 
	C1216.062866,712.436218 1212.262573,712.158203 1208.513672,712.479858 
	C1176.494995,715.227112 1144.484497,718.068787 1112.473999,720.910339 
	C1072.339722,724.472900 1032.209229,728.078369 992.074280,731.634338 
	C961.226318,734.367554 930.374268,737.054871 899.523132,739.752197 
	C898.196167,739.868225 896.839600,739.753601 895.532104,739.964783 
	C892.010986,740.533325 890.530945,739.141357 890.973267,735.596436 
	C891.096130,734.611816 890.991516,733.598816 890.991516,732.598877 
	C890.991516,509.108765 890.991516,285.618622 890.992065,62.128498 
	C890.992065,60.628601 890.542786,58.912743 891.122986,57.685108 
	C891.802002,56.248466 893.206787,54.912720 894.627747,54.149620 
	C895.663940,53.593163 897.236145,54.032074 898.569397,54.032074 
	C1125.726074,54.031658 1352.882690,54.031593 1580.039307,54.032112 
	C1587.601807,54.032131 1587.605103,54.035004 1587.605103,61.646591 
	C1587.605713,291.469788 1587.684204,521.293030 1587.526855,751.116089 
	C1587.501099,788.621887 1584.357788,825.922241 1578.348145,863.013000 
	C1567.549561,929.659363 1547.448730,993.296814 1518.082520,1054.044067 
	C1492.527710,1106.906616 1460.724243,1155.712158 1422.791504,1200.524414 
	C1377.489502,1254.042480 1325.386353,1299.858643 1266.289429,1337.560913 
	C1248.777588,1348.732910 1230.369873,1358.500732 1212.031250,1369.058472 
M1238.218506,500.710846 
	C1238.061279,491.263794 1239.266968,481.555939 1237.517700,472.413513 
	C1228.554199,425.567596 1185.064575,395.658936 1137.753174,403.060822 
	C1088.365234,410.787598 1055.354126,460.912079 1067.587158,509.601746 
	C1079.649414,557.612427 1128.733276,585.923340 1176.390015,572.357910 
	C1208.784058,563.136963 1234.872681,533.250427 1238.218506,500.710846 
z"/>
<path fill="#02D3CF" opacity="1.000000" stroke="none" 
	d="
M92.000000,54.031685 
	C298.156891,54.031689 503.813751,54.031597 709.470642,54.032009 
	C717.006042,54.032024 717.008301,54.034321 717.008301,61.668434 
	C717.008667,290.490875 717.008545,519.313293 717.008301,748.135742 
	C717.008301,755.821899 716.986572,755.577332 709.070679,756.236633 
	C686.006348,758.157593 662.961304,760.309875 639.905823,762.338318 
	C619.173401,764.162415 598.434814,765.915833 577.703186,767.748535 
	C543.705139,770.753967 509.714813,773.846802 475.713226,776.811096 
	C447.514008,779.269470 419.302704,781.588806 391.097931,783.983826 
	C378.654388,785.040405 366.221588,786.238708 353.767029,787.139832 
	C350.187195,787.398804 349.625031,789.183594 350.083221,792.077515 
	C352.969788,810.307922 355.052643,828.710876 358.916840,846.731812 
	C367.048645,884.655457 380.662170,920.700928 399.030609,954.881226 
	C438.630981,1028.570312 494.713593,1086.379761 566.986755,1128.446289 
	C601.837830,1148.731323 638.922607,1163.667603 678.012817,1173.510376 
	C689.129883,1176.309570 700.420044,1178.482178 711.709656,1180.501465 
	C715.536682,1181.185913 717.089355,1182.338867 717.084473,1186.446411 
	C716.983276,1271.775513 716.988647,1357.104858 717.074280,1442.433960 
	C717.077942,1446.066895 716.176575,1447.308838 712.329712,1447.293213 
	C678.958679,1447.157104 645.821045,1444.351440 612.817932,1439.483276 
	C543.837524,1429.308472 478.001343,1408.874146 415.206085,1378.730713 
	C366.252289,1355.231567 320.700531,1326.256348 278.552368,1291.973267 
	C211.824097,1237.696777 156.794830,1173.395020 113.692245,1098.976685 
	C88.184380,1054.936401 67.852516,1008.585205 52.583038,959.987671 
	C40.983452,923.070129 32.572868,885.463257 27.138958,847.193665 
	C22.567110,814.995300 20.457491,782.572815 20.444214,750.066528 
	C20.350470,520.577454 20.394310,291.088379 20.394903,61.599319 
	C20.394922,54.034843 20.398310,54.032574 28.007820,54.032124 
	C49.171879,54.030865 70.335938,54.031673 92.000000,54.031685 
M399.931915,554.567505 
	C435.405823,585.955566 490.639496,582.072266 522.309448,545.963623 
	C554.229919,509.569366 550.129578,454.741180 513.079102,422.538177 
	C477.276703,391.419983 422.514954,395.680664 390.751984,432.055786 
	C359.692810,467.624817 363.635956,523.342773 399.931915,554.567505 
z"/>
<path fill="#FDFFFF" opacity="1.000000" stroke="none" 
	d="
M1238.184814,501.158356 
	C1234.872681,533.250427 1208.784058,563.136963 1176.390015,572.357910 
	C1128.733276,585.923340 1079.649414,557.612427 1067.587158,509.601746 
	C1055.354126,460.912079 1088.365234,410.787598 1137.753174,403.060822 
	C1185.064575,395.658936 1228.554199,425.567596 1237.517700,472.413513 
	C1239.266968,481.555939 1238.061279,491.263794 1238.184814,501.158356 
z"/>
<path fill="#FDFFFF" opacity="1.000000" stroke="none" 
	d="
M399.660767,554.337646 
	C363.635956,523.342773 359.692810,467.624817 390.751984,432.055786 
	C422.514954,395.680664 477.276703,391.419983 513.079102,422.538177 
	C550.129578,454.741180 554.229919,509.569366 522.309448,545.963623 
	C490.639496,582.072266 435.405823,585.955566 399.660767,554.337646 
z"/>
</svg>